<svg width="25" height="24" viewBox="0 0 25 24" fill="none" xmlns="http://www.w3.org/2000/svg">
<path d="M21.4671 10V10.75V10ZM3.53293 10V9.25V10ZM13.6438 2.35375L13.2217 2.97367L13.6438 2.35375ZM22.039 8.07059L22.4611 7.45067L22.039 8.07059ZM11.3562 2.35375L11.7783 2.97367V2.97367L11.3562 2.35375ZM2.96102 8.07059L2.53887 7.45067H2.53887L2.96102 8.07059ZM21.4671 9.25L3.53293 9.25V10.75L21.4671 10.75V9.25ZM13.2217 2.97367L21.6168 8.6905L22.4611 7.45067L14.066 1.73383L13.2217 2.97367ZM10.934 1.73383L2.53887 7.45067L3.38316 8.6905L11.7783 2.97367L10.934 1.73383ZM14.066 1.73383C13.1186 1.08872 11.8814 1.08872 10.934 1.73383L11.7783 2.97367C12.2163 2.67544 12.7837 2.67544 13.2217 2.97367L14.066 1.73383ZM3.53293 9.25C3.45176 9.25 3.40152 9.22581 3.36561 9.19676C3.32439 9.16341 3.28611 9.1094 3.26521 9.03889C3.22348 8.89811 3.26398 8.77166 3.38316 8.6905L2.53887 7.45067C1.11012 8.42361 1.73812 10.75 3.53293 10.75V9.25ZM21.4671 10.75C23.2619 10.75 23.8899 8.42361 22.4611 7.45067L21.6168 8.6905C21.736 8.77166 21.7765 8.89811 21.7348 9.03889C21.7139 9.1094 21.6756 9.16341 21.6344 9.19676C21.5985 9.22582 21.5482 9.25 21.4671 9.25V10.75Z" fill="white"/>
<rect x="4.5" y="10" width="5" height="8" stroke="white" stroke-width="1.5"/>
<rect x="15.5" y="10" width="5" height="8" stroke="white" stroke-width="1.5"/>
<path d="M4.22361 18.5528L4.89443 18.8882L4.22361 18.5528ZM3.22361 20.5528L3.89443 20.8882L3.22361 20.5528ZM20.1056 18.8882L21.1056 20.8882L22.4472 20.2174L21.4472 18.2174L20.1056 18.8882ZM20.882 21.25L4.11803 21.25L4.11803 22.75L20.882 22.75L20.882 21.25ZM3.89443 20.8882L4.89443 18.8882L3.55279 18.2174L2.55279 20.2174L3.89443 20.8882ZM5.11803 18.75L19.882 18.75L19.882 17.25L5.11803 17.25L5.11803 18.75ZM4.89443 18.8882C4.93678 18.8035 5.02334 18.75 5.11803 18.75L5.11803 17.25C4.45518 17.25 3.84922 17.6245 3.55279 18.2174L4.89443 18.8882ZM4.11803 21.25C3.93219 21.25 3.81132 21.0544 3.89443 20.8882L2.55279 20.2174C1.971 21.381 2.81712 22.75 4.11803 22.75L4.11803 21.25ZM21.1056 20.8882C21.1887 21.0544 21.0678 21.25 20.882 21.25L20.882 22.75C22.1829 22.75 23.029 21.381 22.4472 20.2174L21.1056 20.8882ZM21.4472 18.2174C21.1508 17.6245 20.5448 17.25 19.882 17.25L19.882 18.75C19.9767 18.75 20.0632 18.8035 20.1056 18.8882L21.4472 18.2174Z" fill="white"/>
</svg>
