<svg width="22" height="14" viewBox="0 0 22 14" fill="none" xmlns="http://www.w3.org/2000/svg">
<path d="M7.04 0C3.15832 0 0 3.14038 0 7C0 10.8596 3.15832 14 7.04 14C8.50751 14 9.87084 13.5501 11 12.7832C12.129 13.5497 13.4923 14 14.96 14C18.8429 14 22 10.8608 22 7C22 3.13919 18.8429 0 14.96 0C13.4923 0 12.129 0.450286 11 1.2168C9.87084 0.449915 8.50751 0 7.04 0ZM14.96 0.875C18.3673 0.875 21.12 3.61207 21.12 7C21.12 10.3879 18.3673 13.125 14.96 13.125C13.7717 13.125 12.6671 12.7863 11.727 12.209C13.1673 10.9263 14.08 9.0692 14.08 7C14.08 4.9308 13.1673 3.0737 11.727 1.79102C12.6671 1.21369 13.7717 0.875 14.96 0.875Z" fill="white"/>
</svg>
