<svg width="24" height="24" viewBox="0 0 24 24" fill="none" xmlns="http://www.w3.org/2000/svg">
<path d="M20.3454 15.3752C20.5526 14.8633 20.3056 14.2803 19.7937 14.0731C19.2818 13.8658 18.6988 14.1129 18.4915 14.6248L20.3454 15.3752ZM3.65458 8.62478C3.44735 9.13672 3.69437 9.71971 4.2063 9.92694C4.71824 10.1342 5.30123 9.88715 5.50846 9.37522L3.65458 8.62478ZM21 12C21 7.02944 16.9706 3 12 3V5C15.866 5 19 8.13401 19 12H21ZM3 12C3 16.9706 7.02944 21 12 21V19C8.13401 19 5 15.866 5 12H3ZM12 21C15.7786 21 19.011 18.6717 20.3454 15.3752L18.4915 14.6248C17.4524 17.192 14.9361 19 12 19V21ZM12 3C8.22138 3 4.98896 5.32832 3.65458 8.62478L5.50846 9.37522C6.54763 6.80802 9.06387 5 12 5V3Z" fill="white"/>
<path d="M15 10C15 10.5523 14.5523 11 14 11C13.4477 11 13 10.5523 13 10H15ZM12 11C12.5523 11 13 11.4477 13 12C13 12.5523 12.5523 13 12 13V11ZM13 10C13 9.44772 12.5523 9 12 9V7C13.6569 7 15 8.34315 15 10H13ZM12 9C11.4477 9 11 9.44772 11 10H9C9 8.34315 10.3431 7 12 7V9ZM11 10C11 10.5523 11.4477 11 12 11V13C10.3431 13 9 11.6569 9 10H11Z" fill="white"/>
<path d="M12 13C11.4477 13 11 12.5523 11 12C11 11.4477 11.4477 11 12 11V13ZM9 14C9 13.4477 9.44772 13 10 13C10.5523 13 11 13.4477 11 14H9ZM13 14C13 13.4477 12.5523 13 12 13V11C13.6569 11 15 12.3431 15 14H13ZM11 14C11 14.5523 11.4477 15 12 15V17C10.3431 17 9 15.6569 9 14H11ZM12 15C12.5523 15 13 14.5523 13 14H15C15 15.6569 13.6569 17 12 17V15Z" fill="white"/>
<path d="M12 6.5V8" stroke="white" stroke-width="2" stroke-linecap="round" stroke-linejoin="round"/>
<path d="M12 16V17.5" stroke="white" stroke-width="2" stroke-linecap="round" stroke-linejoin="round"/>
<path d="M18 11L18.8944 11.4472C19.572 11.786 20.3828 11.7129 20.9889 11.2584L22 10.5" stroke="white" stroke-width="2" stroke-linecap="round" stroke-linejoin="round"/>
<path d="M2 13L2.89443 12.5528C3.572 12.214 4.38282 12.2871 4.98885 12.7416L6 13.5" stroke="white" stroke-width="2" stroke-linecap="round" stroke-linejoin="round"/>
</svg>
