<svg width="37" height="12" viewBox="0 0 37 12" fill="none" xmlns="http://www.w3.org/2000/svg">
<path d="M24.1304 0C20.9372 0 19.3043 1.56818 19.3043 3.5615C19.3043 7.16711 23.487 6.68182 23.487 8.53476C23.487 8.84759 23.2457 9.59358 21.4922 9.59358C19.7347 9.59358 18.5965 8.91979 18.5965 8.91979L18.0496 11.3583C18.0496 11.3583 19.1877 12 21.3635 12C23.5392 12 26.5435 10.3396 26.5435 7.92513C26.5435 5.02139 22.3609 4.79278 22.3609 3.49733C22.3609 2.83556 22.8757 2.34225 24.3878 2.34225C25.3691 2.34225 26.4791 3.08021 26.4791 3.08021L26.9939 0.57754C26.9939 0.57754 25.534 0 24.1304 0ZM10.5209 0.224599L7.75391 8.37433C7.75391 8.37433 7.56489 7.68048 7.49652 7.25134C5.91598 3.7139 3.34609 2.40642 3.34609 2.40642L5.7913 11.6471H9.13739L13.7704 0.224599H10.5209ZM14.9609 0.224599L13.1591 11.6471H16.2157L18.0496 0.224599H14.9609ZM31.4661 0.224599L26.4791 11.6471H29.5035L30.1148 10.0107H33.9113L34.233 11.6471H37L34.6513 0.224599H31.4661ZM0 0.256684C0 0.256684 5.9763 2.1016 7.36783 6.57754L6.33826 1.37968C6.33826 1.37968 5.89587 0.256684 4.69739 0.256684H0ZM32.6243 3.52941L33.4609 7.82888H30.9513L32.6243 3.52941Z" fill="white"/>
</svg>
