<svg width="262" height="97" viewBox="0 0 262 97" fill="none" xmlns="http://www.w3.org/2000/svg">
<g filter="url(#filter0_d_6_1660)">
<path d="M45.2514 38.1676C45.6551 38.1676 46.0527 38.1676 46.4443 38.1676C47.4505 38.1676 48.4084 38.1676 49.2941 38.1676C52.7162 38.1676 55.0539 38.1676 55.0539 38.1676C55.0539 38.1676 65.8445 38.7098 65.1637 31.1245C64.5371 24.1356 57.3554 25.7021 57.3554 25.7021C57.3554 25.7021 56.6866 11.5014 39.6061 12.0135C22.9894 12.5136 21.8567 27.1902 21.8567 27.1902C21.8567 27.1902 16.5608 27.2625 16.0306 32.2029C15.627 35.9986 19.2841 38.1676 22.6701 38.1676C24.4354 38.1676 33.1594 38.1676 41.1123 38.1676H45.2514Z" fill="#B0D3FF"/>
<path d="M239.379 52.4408C242.83 52.4408 245.627 49.6436 245.627 46.193C245.627 42.7424 242.83 39.9452 239.379 39.9452C235.929 39.9452 233.132 42.7424 233.132 46.193C233.132 49.6436 235.929 52.4408 239.379 52.4408Z" fill="#B0D3FF"/>
<path d="M216.226 39.9448C217.467 41.3004 218.545 42.7042 219.407 44.1743C224.167 52.2356 223.395 61.3935 223.395 61.3935C223.395 61.3935 230.216 58.628 235.813 63.1166C240.789 67.1051 238.94 76.9136 227.685 76.9136C224.329 76.9136 191.921 76.9136 171.093 76.9136C169.629 76.9136 168.225 76.9136 166.888 76.9136C159.616 76.9136 154.459 76.9136 153.687 76.9136C153.687 76.9136 146.21 78.1125 145.982 71.5755C145.686 63.3154 155.772 64.8397 155.772 64.8397C155.772 64.8397 152.802 57.6821 159.7 53.537C166.599 49.3979 171.985 55.5252 171.985 55.5252C171.985 55.5252 174.883 27.9734 202.001 32.7571C204.007 33.1126 205.821 33.6127 207.472 34.2332C207.478 34.2393 213.051 36.4805 216.226 39.9448Z" fill="#B0D3FF"/>
</g>
<defs>
<filter id="filter0_d_6_1660" x="0" y="0" width="261.627" height="97" filterUnits="userSpaceOnUse" color-interpolation-filters="sRGB">
<feFlood flood-opacity="0" result="BackgroundImageFix"/>
<feColorMatrix in="SourceAlpha" type="matrix" values="0 0 0 0 0 0 0 0 0 0 0 0 0 0 0 0 0 0 127 0" result="hardAlpha"/>
<feOffset dy="4"/>
<feGaussianBlur stdDeviation="8"/>
<feComposite in2="hardAlpha" operator="out"/>
<feColorMatrix type="matrix" values="0 0 0 0 0 0 0 0 0 0 0 0 0 0 0 0 0 0 0.1 0"/>
<feBlend mode="normal" in2="BackgroundImageFix" result="effect1_dropShadow_6_1660"/>
<feBlend mode="normal" in="SourceGraphic" in2="effect1_dropShadow_6_1660" result="shape"/>
</filter>
</defs>
</svg>
