<svg width="285" height="157" viewBox="0 0 285 157" fill="none" xmlns="http://www.w3.org/2000/svg">
<g clip-path="url(#clip0_4_866)">
<path d="M43.4756 134.15C37.1469 138.878 35.3533 147.196 35.3533 147.196C35.3533 147.196 43.8205 147.849 50.1492 143.121C56.4779 138.394 58.2715 130.075 58.2715 130.075C58.2715 130.075 49.8043 129.422 43.4756 134.15Z" fill="#979797"/>
<path d="M46.1119 136.37C43.0703 143.669 35.4526 147.431 35.4526 147.431C35.4526 147.431 32.7663 139.357 35.808 132.058C38.8496 124.759 46.4673 120.997 46.4673 120.997C46.4673 120.997 49.1535 129.07 46.1119 136.37Z" fill="#979797"/>
<path d="M228.194 115.268C227.522 110.729 227.344 106.13 227.664 101.552L228.194 93.9762C225.275 99.7973 225.934 107.459 228.194 115.268V115.268Z" fill="#CACACA"/>
<path d="M230.47 116.535C230.147 113.827 230.061 111.095 230.216 108.371L230.47 103.862C229.066 107.327 229.383 111.887 230.47 116.535Z" fill="#CACACA"/>
<path d="M240.589 122.112V124.647C240.588 124.848 240.508 125.041 240.366 125.184C240.224 125.326 240.031 125.406 239.83 125.407H238.566C238.532 125.407 238.5 125.414 238.469 125.426C238.438 125.439 238.41 125.458 238.387 125.481C238.363 125.505 238.344 125.533 238.332 125.564C238.319 125.595 238.313 125.628 238.313 125.661V146.446C238.312 146.647 238.231 146.84 238.089 146.982C237.947 147.125 237.755 147.205 237.554 147.206H222.125C221.923 147.206 221.731 147.126 221.588 146.983C221.446 146.841 221.366 146.647 221.366 146.446V125.661C221.366 125.594 221.339 125.529 221.292 125.482C221.244 125.434 221.18 125.408 221.113 125.407H219.595C219.394 125.407 219.201 125.327 219.059 125.184C218.917 125.042 218.837 124.849 218.836 124.647V122.112C218.836 122.012 218.856 121.913 218.894 121.821C218.932 121.729 218.988 121.645 219.058 121.574C219.129 121.504 219.213 121.448 219.305 121.409C219.397 121.371 219.496 121.352 219.595 121.352H239.83C240.031 121.352 240.224 121.433 240.366 121.575C240.508 121.718 240.589 121.911 240.589 122.112Z" fill="#F2F2F2"/>
<path d="M238.336 125.94H221.389V126.7H238.336V125.94Z" fill="#E6E6E6"/>
<path d="M238.313 137.129C232.642 139.481 226.909 139.507 221.113 137.129V131.772C226.693 129.894 232.733 129.894 238.313 131.772V137.129Z" fill="#3F3D56"/>
<path d="M143.323 55.2187C155.982 55.2187 166.245 44.9347 166.245 32.2486C166.245 19.5626 155.982 9.27856 143.323 9.27856C130.664 9.27856 120.401 19.5626 120.401 32.2486C120.401 44.9347 130.664 55.2187 143.323 55.2187Z" fill="#FEB8B8"/>
<path d="M164.732 12.4319C161.305 6.85528 155.941 2.74607 149.672 0.895293L146.858 2.95313V0.281089C145.352 0.0501684 143.828 -0.0387889 142.306 0.0153872L139.878 2.2167V0.198273C136.284 0.645898 132.821 1.83502 129.708 3.69067C126.595 5.54631 123.899 8.02821 121.791 10.9799C116.518 18.5966 115.628 29.1931 120.814 36.8709C122.237 32.4868 123.965 28.3734 125.389 23.9898C126.508 24.1426 127.642 24.1481 128.762 24.0062L130.494 19.9565L130.978 23.8348C136.346 23.3663 144.308 22.3372 149.397 21.3944L148.902 18.419L151.863 20.8913C153.422 20.5318 154.348 20.2054 154.271 19.9561C158.056 26.0707 162.688 29.976 166.472 36.0906C167.91 27.4687 169.564 20.2997 164.732 12.4319Z" fill="#2F2E41"/>
<path d="M192.621 91.3169C191.833 86.5649 191.02 81.7217 188.816 77.4408C187.368 74.6368 185.069 71.9648 181.969 71.4104C181.358 71.3558 180.758 71.2166 180.186 70.9968C179.278 70.5584 167.073 63.5767 165.134 62.3607C163.468 61.3168 160.839 59.3839 159.513 59.3839C158.18 59.3545 153.066 60.5472 133.105 58.9836C133.105 58.9836 127.622 61.1495 123.379 63.7758C123.315 63.7334 102.662 74.8472 101.886 74.818C100.416 74.7559 99.0506 75.6987 98.2082 76.886C97.3661 78.0732 96.971 79.543 96.5574 80.964C101.068 91.0309 105.196 101.111 109.707 111.177C109.918 111.557 110.03 111.983 110.033 112.417C109.942 112.868 109.751 113.292 109.472 113.657C107.26 117.219 107.33 121.698 107.572 125.883C107.814 130.069 108.113 134.49 106.246 138.242C105.738 139.272 105.078 140.215 104.595 141.245C103.464 143.578 103.056 151.039 103.716 153.545L186.469 155.921C184.69 151.02 192.621 91.3169 192.621 91.3169Z" fill="#6C63FF"/>
<path d="M89.4042 111.624C89.2391 112.821 89.2225 114.034 89.3547 115.235L90.5408 132.304C90.6522 133.913 90.7618 135.518 90.9124 137.122C91.197 140.237 91.6221 143.326 92.1498 146.412C92.1617 146.85 92.3465 147.265 92.6638 147.567C92.981 147.868 93.4047 148.032 93.8418 148.02C99.0628 149.128 104.457 149.083 109.786 148.782C117.917 148.327 138.719 147.466 139.989 145.812C141.26 144.158 140.52 141.482 138.863 140.144C137.205 138.806 109.754 135.545 109.754 135.545C110.022 133.415 110.832 131.409 111.599 129.386C112.978 125.799 114.266 122.094 114.29 118.252C114.315 114.41 112.87 110.37 109.729 108.168C107.146 106.361 103.819 106.026 100.67 106.1C98.3796 106.166 94.4215 105.616 92.3292 106.514C90.6734 107.245 89.7136 109.999 89.4042 111.624Z" fill="#E39C9C"/>
<path d="M96.3187 81.2704C95.9167 81.6923 95.6049 82.192 95.4026 82.7389C92.0664 90.2735 90.0959 98.3433 89.5832 106.57C89.5922 106.971 89.5 107.368 89.315 107.724C89.1326 107.961 88.9295 108.181 88.7083 108.382C88.5153 108.611 88.3693 108.876 88.2786 109.162C88.1879 109.447 88.1542 109.748 88.1795 110.047C88.2048 110.346 88.2886 110.637 88.4261 110.903C88.5636 111.169 88.752 111.406 88.9807 111.599C89.0182 111.631 89.0567 111.661 89.0962 111.691C89.7772 110.406 91.4074 109.987 92.8564 109.875C99.7942 109.325 106.571 112.56 113.53 112.316C113.039 110.615 112.333 108.982 111.932 107.261C110.162 99.6222 114.578 91.305 111.87 83.9469C111.33 82.4745 110.426 81.0269 109.002 80.3817C108.412 80.1433 107.796 79.9797 107.166 79.8945C105.407 79.5761 101.907 78.2153 100.207 78.7613C99.5794 78.9642 99.332 79.5553 98.8119 79.9127C98.0217 80.4184 96.9736 80.6044 96.3187 81.2704Z" fill="#6C63FF"/>
<path d="M192.671 106.514C190.578 105.616 186.62 106.166 184.33 106.1C181.181 106.026 177.854 106.361 175.271 108.168C172.13 110.37 170.685 114.41 170.71 118.252C170.734 122.094 172.022 125.799 173.401 129.386C174.168 131.409 174.978 133.415 175.246 135.545C175.246 135.545 147.795 138.806 146.137 140.144C144.48 141.482 143.74 144.158 145.011 145.812C146.281 147.466 185.937 149.128 191.158 148.02C191.595 148.032 192.019 147.868 192.336 147.567C192.653 147.265 192.838 146.85 192.85 146.412C193.378 143.326 193.803 140.237 194.088 137.122C194.238 135.518 194.348 133.913 194.459 132.304L195.645 115.235C195.777 114.034 195.761 112.821 195.596 111.624C195.286 109.999 194.327 107.245 192.671 106.514Z" fill="#E39C9C"/>
<path d="M186.188 79.9127C185.668 79.5553 185.421 78.9642 184.793 78.7613C183.093 78.2153 179.593 79.5761 177.835 79.8945C177.205 79.9797 176.588 80.1433 175.998 80.3816C174.574 81.0268 173.67 82.4745 173.13 83.9469C170.422 91.305 174.838 99.6222 173.068 107.261C172.667 108.982 171.961 110.615 171.47 112.315C178.429 112.56 185.206 109.325 192.144 109.875C193.593 109.987 195.223 110.406 195.904 111.691C195.943 111.661 195.982 111.631 196.019 111.599C196.248 111.406 196.436 111.169 196.574 110.903C196.711 110.637 196.795 110.346 196.82 110.047C196.846 109.748 196.812 109.448 196.721 109.162C196.631 108.876 196.485 108.611 196.292 108.382C196.071 108.181 195.867 107.961 195.685 107.724C195.5 107.368 195.408 106.971 195.417 106.57C194.904 98.3432 192.934 90.2735 189.597 82.7389C189.395 82.192 189.083 81.6923 188.681 81.2704C188.026 80.6044 186.978 80.4184 186.188 79.9127Z" fill="#6C63FF"/>
<path d="M136.534 148.836C139.951 148.836 142.721 146.06 142.721 142.636C142.721 139.212 139.951 136.436 136.534 136.436C133.118 136.436 130.348 139.212 130.348 142.636C130.348 146.06 133.118 148.836 136.534 148.836Z" fill="#E39C9C"/>
<path d="M150.233 148.836C153.65 148.836 156.42 146.06 156.42 142.636C156.42 139.212 153.65 136.436 150.233 136.436C146.816 136.436 144.047 139.212 144.047 142.636C144.047 146.06 146.816 148.836 150.233 148.836Z" fill="#E39C9C"/>
<path d="M188.422 156.606H103.427C102.435 156.605 101.483 156.209 100.782 155.506C100.08 154.803 99.6853 153.85 99.6841 152.855V101.183C99.6853 100.189 100.08 99.2353 100.782 98.5321C101.483 97.829 102.435 97.4335 103.427 97.4324H188.422C189.414 97.4335 190.365 97.829 191.067 98.5321C191.769 99.2353 192.163 100.189 192.165 101.183V152.855C192.163 153.85 191.769 154.803 191.067 155.506C190.365 156.209 189.414 156.605 188.422 156.606Z" fill="#3F3D56"/>
<path d="M145.718 129.501C147.086 129.501 148.195 128.39 148.195 127.019C148.195 125.649 147.086 124.538 145.718 124.538C144.35 124.538 143.242 125.649 143.242 127.019C143.242 128.39 144.35 129.501 145.718 129.501Z" fill="white"/>
<path d="M285 146.184H0V154.96H16.8574V157H268.149V154.96H285V146.184Z" fill="#979797"/>
<path d="M122.245 40.81C118.562 40.81 115.576 37.575 115.576 33.5843V29.9714C115.576 25.9808 118.562 22.7457 122.245 22.7457V40.81H122.245Z" fill="#6C63FF"/>
<path d="M164.81 22.7457C168.493 22.7457 171.479 25.9808 171.479 29.9714V33.5843C171.479 37.575 168.493 40.81 164.81 40.81V22.7457Z" fill="#6C63FF"/>
<path d="M168.304 30.5392H167.246C167.246 15.9996 156.329 4.17074 142.91 4.17074C129.491 4.17074 118.574 15.9996 118.574 30.5392H117.516C117.516 15.3674 128.908 3.02429 142.91 3.02429C156.913 3.0243 168.304 15.3674 168.304 30.5392Z" fill="#6C63FF"/>
</g>
<defs>
<clipPath id="clip0_4_866">
<rect width="285" height="157" fill="white"/>
</clipPath>
</defs>
</svg>
