<svg width="209" height="95" viewBox="0 0 209 95" fill="none" xmlns="http://www.w3.org/2000/svg">
<g clip-path="url(#clip0_10_2026)">
<rect width="209" height="95" rx="8" fill="#6B42DD"/>
<path d="M-62.5 207C-33.5 184.488 33.3875 182.621 -7 84.9146C-40.5 3.87073 51.1667 6.12195 96 -6" stroke="white" stroke-opacity="0.3"/>
<path d="M-52.5 207C-23.5 184.488 43.3875 182.621 3 84.9146C-30.5 3.87073 61.1667 6.12195 106 -6" stroke="white" stroke-opacity="0.3"/>
<path d="M-42.5 207C-13.5 184.488 53.3875 182.621 13 84.9146C-20.5 3.87073 71.1667 6.12195 116 -6" stroke="white" stroke-opacity="0.3"/>
<path d="M-32.5 207C-3.5 184.488 63.3875 182.621 23 84.9146C-10.5 3.87073 81.1667 6.12195 126 -6" stroke="white" stroke-opacity="0.3"/>
<path d="M-22.5 207C6.5 184.488 73.3875 182.621 33 84.9146C-0.5 3.87073 91.1667 6.12195 136 -6" stroke="white" stroke-opacity="0.3"/>
<path d="M-12.5 207C16.5 184.488 83.3875 182.621 43 84.9146C9.5 3.87073 101.167 6.12195 146 -6" stroke="white" stroke-opacity="0.3"/>
<path d="M-2.5 207C26.5 184.488 93.3875 182.621 53 84.9146C19.5 3.87073 111.167 6.12195 156 -6" stroke="white" stroke-opacity="0.3"/>
<path d="M7.5 207C36.5 184.488 103.387 182.621 63 84.9146C29.5 3.87073 121.167 6.12195 166 -6" stroke="white" stroke-opacity="0.3"/>
<path d="M17.5 207C46.5 184.488 113.387 182.621 73 84.9146C39.5 3.87073 131.167 6.12195 176 -6" stroke="white" stroke-opacity="0.3"/>
</g>
<defs>
<clipPath id="clip0_10_2026">
<rect width="209" height="95" rx="8" fill="white"/>
</clipPath>
</defs>
</svg>
