<svg width="139" height="106" viewBox="0 0 139 106" fill="none" xmlns="http://www.w3.org/2000/svg">
<path d="M121.322 24.9018V100.889C121.322 103.391 119.115 105.426 116.402 105.426H5.07188C2.35857 105.426 0.151367 103.391 0.151367 100.889V24.9018C0.151367 22.4 2.35857 20.3649 5.07188 20.3649H116.402C119.115 20.3649 121.322 22.387 121.322 24.9018Z" fill="#6B42DD"/>
<path d="M111.3 39.0309H10.1202V75.7283H111.3V39.0309Z" fill="#EFFFFF"/>
<path opacity="0.4" d="M121.322 24.9018V32.135H0.151367V24.9018C0.151367 22.4 2.35857 20.3649 5.07188 20.3649H116.402C119.115 20.3649 121.322 22.387 121.322 24.9018Z" fill="#DA77EA"/>
<path d="M41.1757 80.2527H10.1202V96.8708H41.1757V80.2527Z" fill="#9AB4F3"/>
<path d="M76.2792 80.2527H45.2238V96.8708H76.2792V80.2527Z" fill="#9AB4F3"/>
<path d="M111.299 80.2527H80.2438V96.8708H111.299V80.2527Z" fill="#9AB4F3"/>
<path d="M26.7362 58.7863H19.7772V68.9102H26.7362V58.7863Z" fill="#9AB4F3"/>
<path d="M40.7528 52.37H33.7938V68.9104H40.7528V52.37Z" fill="#9AB4F3"/>
<path d="M54.7699 45.448H47.8109V68.8975H54.7699V45.448Z" fill="#9AB4F3"/>
<path d="M68.7865 45.448H61.8275V68.8975H68.7865V45.448Z" fill="#9AB4F3"/>
<path d="M81.9723 51.9419C83.595 51.9419 84.9105 50.7289 84.9105 49.2326C84.9105 47.7364 83.595 46.5234 81.9723 46.5234C80.3495 46.5234 79.0341 47.7364 79.0341 49.2326C79.0341 50.7289 80.3495 51.9419 81.9723 51.9419Z" fill="#F98787"/>
<path d="M81.9723 60.0953C83.595 60.0953 84.9105 58.8823 84.9105 57.3861C84.9105 55.8898 83.595 54.6768 81.9723 54.6768C80.3495 54.6768 79.0341 55.8898 79.0341 57.3861C79.0341 58.8823 80.3495 60.0953 81.9723 60.0953Z" fill="#F98787"/>
<path d="M81.9723 68.2365C83.595 68.2365 84.9105 67.0236 84.9105 65.5274C84.9105 64.0311 83.595 62.8181 81.9723 62.8181C80.3495 62.8181 79.0341 64.0311 79.0341 65.5274C79.0341 67.0236 80.3495 68.2365 81.9723 68.2365Z" fill="#F98787"/>
<path d="M101.332 48.3256H87.6807V50.1404H101.332V48.3256Z" fill="#F98787"/>
<path d="M101.191 56.427H87.5399V58.2418H101.191V56.427Z" fill="#F98787"/>
<path d="M101.332 64.6193H87.6807V66.4341H101.332V64.6193Z" fill="#F98787"/>
<path d="M117.313 47.3029C129.084 47.3029 138.626 38.5046 138.626 27.6514C138.626 16.7983 129.084 8 117.313 8C105.542 8 96 16.7983 96 27.6514C96 38.5046 105.542 47.3029 117.313 47.3029Z" fill="#32D5D8"/>
<path d="M117.312 43.764C126.963 43.764 134.787 36.5501 134.787 27.6514C134.787 18.7526 126.963 11.5387 117.312 11.5387C107.661 11.5387 99.8373 18.7526 99.8373 27.6514C99.8373 36.5501 107.661 43.764 117.312 43.764Z" fill="#32D5D8"/>
<path d="M72.6937 3.66948H68.6167V0.169556H66.9297V3.66948H62.8527V5.22501H66.9297V8.72493H68.6167V5.22501H72.6937V3.66948Z" fill="#F0DAF4"/>
<path d="M135.115 66.279C133.021 66.279 131.32 64.7105 131.32 62.7791C131.32 60.8477 133.021 59.2792 135.115 59.2792C137.21 59.2792 138.911 60.8477 138.911 62.7791C138.911 64.7105 137.21 66.279 135.115 66.279ZM135.115 60.8347C133.949 60.8347 133.007 61.7032 133.007 62.7791C133.007 63.855 133.949 64.7235 135.115 64.7235C136.282 64.7235 137.224 63.855 137.224 62.7791C137.224 61.7032 136.282 60.8347 135.115 60.8347Z" fill="#F0DAF4"/>
<path fill-rule="evenodd" clip-rule="evenodd" d="M125.561 16.47L123.984 18.0319C122.222 16.8759 120.16 16.2542 118 16.2542C112.378 16.2542 107.738 20.4981 107.172 25.9288C107.109 26.5247 107.6 27.0437 108.208 27.0437H110.312C110.833 27.0437 111.252 26.6532 111.323 26.1394C111.77 22.882 114.594 20.3645 118 20.3645C119.039 20.3645 120.038 20.606 120.945 21.0427L119.77 22.209C119.117 22.8563 119.579 23.961 120.503 23.961H126.294C126.866 23.961 127.331 23.5037 127.331 22.9334V17.1945C127.331 16.2799 126.214 15.8227 125.561 16.47Z" fill="#F2F2F2"/>
<path fill-rule="evenodd" clip-rule="evenodd" d="M127.792 26.9563H125.688C125.167 26.9563 124.747 27.3468 124.677 27.8606C124.23 31.1128 121.406 33.6355 118 33.6355C116.961 33.6355 115.961 33.394 115.054 32.9573L116.23 31.791C116.883 31.1436 116.42 30.039 115.497 30.039H109.706C109.133 30.039 108.669 30.4963 108.669 31.0666V36.8055C108.669 37.7201 109.786 38.1773 110.439 37.53L112.016 35.9681C113.778 37.1241 115.84 37.7457 118 37.7457C123.622 37.7457 128.262 33.4968 128.828 28.0712C128.891 27.4701 128.4 26.9563 127.792 26.9563Z" fill="#F2F2F2"/>
</svg>
