<svg width="94" height="94" viewBox="0 0 94 94" fill="none" xmlns="http://www.w3.org/2000/svg">
<path fill-rule="evenodd" clip-rule="evenodd" d="M71.4492 31.4465C66.5378 31.4465 62.5598 27.4685 62.5598 22.557C62.5598 17.6456 66.5378 13.6676 71.4492 13.6676C76.3607 13.6676 80.3387 17.6456 80.3387 22.557C80.3387 27.4685 76.3607 31.4465 71.4492 31.4465ZM62.5596 0.333344C45.3807 0.333344 31.4465 14.2676 31.4465 31.4465C31.4465 35.9579 32.4243 40.2471 34.1578 44.114L3.57797 74.6938C1.40005 76.8717 0.333313 79.7163 0.333313 82.561C0.333313 85.4056 1.40005 88.2502 3.57797 90.4281C7.93381 94.7618 14.9565 94.7618 19.3123 90.4281L23.9571 85.7612C25.2238 84.4944 25.2238 82.4498 23.9571 81.1831L23.9349 81.1609C22.6681 79.8941 22.6681 77.8495 23.9349 76.5606L32.5576 67.96C33.8244 66.6933 35.869 66.6933 37.158 67.96C38.4247 69.249 40.4693 69.249 41.736 67.96L49.8699 59.8484C53.759 61.5818 58.0482 62.5596 62.5596 62.5596C79.7385 62.5596 93.6728 48.6254 93.6728 31.4465C93.6728 14.2676 79.7385 0.333344 62.5596 0.333344Z" fill="#006CC4"/>
</svg>
