<svg width="132" height="165" viewBox="0 0 132 165" fill="none" xmlns="http://www.w3.org/2000/svg">
<path d="M107.285 39.0792H106.383V14.3263C106.383 10.5267 104.877 6.88279 102.196 4.19609C99.5153 1.50938 95.8793 4.73778e-06 92.088 0H39.76C37.8827 -6.7024e-06 36.0238 0.370548 34.2895 1.09051C32.5551 1.81046 30.9792 2.86573 29.6518 4.19604C28.3244 5.52636 27.2714 7.10567 26.553 8.84382C25.8346 10.582 25.4649 12.4449 25.4648 14.3263V150.123C25.4648 152.004 25.8346 153.867 26.553 155.605C27.2714 157.343 28.3243 158.923 29.6518 160.253C30.9792 161.583 32.555 162.638 34.2894 163.358C36.0238 164.078 37.8826 164.449 39.7599 164.449H92.088C93.9652 164.449 95.8241 164.078 97.5585 163.358C99.2928 162.638 100.869 161.583 102.196 160.253C103.524 158.923 104.577 157.343 105.295 155.605C106.013 153.867 106.383 152.004 106.383 150.123V56.6987H107.285V39.0792Z" fill="#3F3D56"/>
<path d="M92.5571 4.06604H85.7266C86.0407 4.83784 86.1606 5.67521 86.0757 6.50439C85.9909 7.33358 85.7038 8.12912 85.2399 8.82094C84.776 9.51276 84.1494 10.0796 83.4154 10.4716C82.6814 10.8636 81.8624 11.0686 81.0307 11.0687H51.0526C50.2209 11.0686 49.402 10.8636 48.668 10.4716C47.934 10.0796 47.3074 9.51276 46.8435 8.82094C46.3795 8.12912 46.0925 7.33358 46.0076 6.5044C45.9228 5.67522 46.0427 4.83784 46.3568 4.06604H39.9771C37.1458 4.06604 34.4304 5.19321 32.4284 7.19961C30.4264 9.20601 29.3016 11.9273 29.3016 14.7647V150.362C29.3016 151.767 29.5778 153.158 30.1143 154.456C30.6507 155.754 31.4371 156.934 32.4284 157.927C33.4197 158.92 34.5965 159.709 35.8917 160.246C37.1869 160.784 38.5751 161.061 39.977 161.061H92.5571C95.3884 161.061 98.1037 159.933 100.106 157.927C102.108 155.921 103.233 153.199 103.233 150.362V14.7648C103.233 13.3598 102.956 11.9686 102.42 10.6705C101.883 9.37251 101.097 8.19309 100.106 7.19962C99.1145 6.20615 97.9376 5.41809 96.6424 4.88043C95.3472 4.34277 93.959 4.06604 92.5571 4.06604H92.5571ZM91.4095 66.9704C91.4074 67.7047 91.1154 68.4083 90.5973 68.9276C90.0792 69.4468 89.3771 69.7395 88.6444 69.7416H75.2795C74.5468 69.7395 73.8447 69.4468 73.3266 68.9276C72.8085 68.4083 72.5165 67.7047 72.5144 66.9704V66.2776C72.5165 65.5433 72.8085 64.8397 73.3266 64.3205C73.8447 63.8012 74.5468 63.5086 75.2795 63.5064H88.6444C89.3771 63.5086 90.0792 63.8012 90.5973 64.3205C91.1154 64.8397 91.4074 65.5433 91.4095 66.2776V66.9704ZM92.9073 54.731C92.9052 55.4653 92.6132 56.1689 92.0951 56.6881C91.577 57.2074 90.8749 57.5 90.1422 57.5022H42.2129C41.4802 57.5 40.7781 57.2074 40.26 56.6881C39.7419 56.1689 39.4499 55.4653 39.4478 54.731V54.0382C39.4499 53.3039 39.7419 52.6003 40.26 52.081C40.7781 51.5618 41.4802 51.2692 42.2129 51.267H90.1422C90.8749 51.2692 91.577 51.5618 92.0951 52.081C92.6132 52.6003 92.9052 53.3039 92.9073 54.0382V54.731ZM92.9073 42.4916C92.9052 43.2259 92.6132 43.9295 92.0951 44.4487C91.577 44.9679 90.8749 45.2606 90.1422 45.2628H42.2129C41.4802 45.2606 40.7781 44.968 40.26 44.4487C39.7419 43.9295 39.4499 43.2259 39.4478 42.4916V41.7988C39.4499 41.0645 39.7419 40.3609 40.26 39.8416C40.7781 39.3224 41.4802 39.0297 42.2129 39.0276H90.1422C90.8749 39.0297 91.577 39.3224 92.0951 39.8416C92.6132 40.3608 92.9052 41.0645 92.9073 41.7988V42.4916ZM92.9073 30.2521C92.9052 30.9864 92.6132 31.6901 92.0951 32.2093C91.577 32.7285 90.8749 33.0212 90.1422 33.0233H42.2129C41.4802 33.0212 40.7781 32.7285 40.26 32.2093C39.7419 31.6901 39.4499 30.9864 39.4478 30.2521V29.5593C39.4499 28.825 39.7419 28.1214 40.26 27.6022C40.7781 27.083 41.4802 26.7903 42.2129 26.7882H90.1422C90.8749 26.7903 91.577 27.083 92.0951 27.6022C92.6132 28.1214 92.9052 28.825 92.9073 29.5593V30.2521Z" fill="white"/>
<path d="M43.2498 56.1166C44.1407 56.1166 44.8628 55.3929 44.8628 54.5001C44.8628 53.6073 44.1407 52.8835 43.2498 52.8835C42.359 52.8835 41.6368 53.6073 41.6368 54.5001C41.6368 55.3929 42.359 56.1166 43.2498 56.1166Z" fill="white"/>
<path d="M48.5497 56.1166C49.4405 56.1166 50.1627 55.3929 50.1627 54.5001C50.1627 53.6073 49.4405 52.8835 48.5497 52.8835C47.6589 52.8835 46.9367 53.6073 46.9367 54.5001C46.9367 55.3929 47.6589 56.1166 48.5497 56.1166Z" fill="white"/>
<path d="M53.8496 56.1166C54.7404 56.1166 55.4626 55.3929 55.4626 54.5001C55.4626 53.6073 54.7404 52.8835 53.8496 52.8835C52.9587 52.8835 52.2366 53.6073 52.2366 54.5001C52.2366 55.3929 52.9587 56.1166 53.8496 56.1166Z" fill="white"/>
<path d="M59.1494 56.1166C60.0403 56.1166 60.7624 55.3929 60.7624 54.5001C60.7624 53.6073 60.0403 52.8835 59.1494 52.8835C58.2586 52.8835 57.5364 53.6073 57.5364 54.5001C57.5364 55.3929 58.2586 56.1166 59.1494 56.1166Z" fill="white"/>
<path d="M76.4316 68.3561C77.3224 68.3561 78.0446 67.6324 78.0446 66.7396C78.0446 65.8468 77.3224 65.123 76.4316 65.123C75.5408 65.123 74.8186 65.8468 74.8186 66.7396C74.8186 67.6324 75.5408 68.3561 76.4316 68.3561Z" fill="white"/>
<path d="M81.7315 68.3561C82.6224 68.3561 83.3445 67.6324 83.3445 66.7396C83.3445 65.8468 82.6224 65.123 81.7315 65.123C80.8407 65.123 80.1185 65.8468 80.1185 66.7396C80.1185 67.6324 80.8407 68.3561 81.7315 68.3561Z" fill="white"/>
<path d="M87.0314 68.3561C87.9222 68.3561 88.6444 67.6324 88.6444 66.7396C88.6444 65.8468 87.9222 65.123 87.0314 65.123C86.1406 65.123 85.4184 65.8468 85.4184 66.7396C85.4184 67.6324 86.1406 68.3561 87.0314 68.3561Z" fill="white"/>
<path d="M93.2782 87.6846H38.6161C37.3319 87.6846 36.1003 88.1958 35.1923 89.1059C34.2842 90.0159 33.774 91.2502 33.774 92.5372V119.228C33.774 120.515 34.2842 121.749 35.1923 122.659C36.1003 123.569 37.3319 124.081 38.6161 124.081H93.2782C94.5624 124.081 95.794 123.569 96.702 122.659C97.6101 121.749 98.1202 120.515 98.1202 119.228V92.5372C98.1203 91.2502 97.6101 90.0159 96.702 89.1059C95.794 88.1958 94.5624 87.6846 93.2782 87.6846H93.2782ZM37.2637 90.9948C37.3717 90.9753 39.9312 90.5387 42.0507 91.8169C44.17 93.0947 44.9843 95.5658 45.0179 95.6703L45.1036 95.9367L44.8285 95.9856C44.4362 96.047 44.0395 96.0762 43.6424 96.0729C42.3826 96.0971 41.1393 95.783 40.0414 95.1634C37.9221 93.8857 37.1079 91.4147 37.0744 91.3102L36.9887 91.0437L37.2637 90.9948ZM49.1294 115.775H39.38C38.6689 115.775 37.987 115.492 37.4842 114.988C36.9813 114.485 36.6989 113.801 36.6989 113.088C36.6989 112.376 36.9813 111.692 37.4842 111.188C37.987 110.685 38.6689 110.402 39.38 110.402H49.1294C49.8405 110.402 50.5224 110.685 51.0252 111.188C51.528 111.692 51.8105 112.376 51.8105 113.088C51.8105 113.801 51.528 114.485 51.0252 114.988C50.5224 115.492 49.8405 115.775 49.1294 115.775ZM93.4893 115.287C93.487 116.064 93.1781 116.808 92.6301 117.357C92.0821 117.906 91.3395 118.216 90.5644 118.218H83.2524C82.4774 118.216 81.7347 117.906 81.1867 117.357C80.6387 116.808 80.3298 116.064 80.3276 115.287V110.89C80.3298 110.113 80.6387 109.369 81.1867 108.82C81.7347 108.271 82.4774 107.961 83.2524 107.959H90.5644C91.3395 107.961 92.0821 108.271 92.6301 108.82C93.1781 109.369 93.487 110.113 93.4893 110.89L93.4893 115.287Z" fill="#6C63FF"/>
<path d="M85.6099 114.381H82.67C82.46 114.381 82.2587 114.464 82.1102 114.613C81.9618 114.762 81.8784 114.964 81.8784 115.174C81.8784 115.385 81.9618 115.586 82.1102 115.735C82.2587 115.884 82.46 115.967 82.67 115.967H85.6099C85.8199 115.967 86.0212 115.884 86.1696 115.735C86.3181 115.586 86.4015 115.385 86.4015 115.174C86.4015 114.964 86.3181 114.762 86.1696 114.613C86.0212 114.464 85.8199 114.381 85.6099 114.381Z" fill="#3F3D56"/>
<path d="M91.0376 114.381H88.0976C87.8876 114.381 87.6863 114.464 87.5379 114.613C87.3894 114.762 87.306 114.964 87.306 115.174C87.306 115.385 87.3894 115.586 87.5379 115.735C87.6863 115.884 87.8876 115.967 88.0976 115.967H91.0376C91.2475 115.967 91.4488 115.884 91.5972 115.735C91.7457 115.586 91.8291 115.385 91.8291 115.174C91.8291 114.964 91.7457 114.762 91.5972 114.613C91.4488 114.464 91.2475 114.381 91.0376 114.381Z" fill="#3F3D56"/>
<path d="M85.6094 112.142H82.6695C82.4595 112.142 82.2582 112.225 82.1098 112.374C81.9613 112.523 81.8779 112.724 81.8779 112.935C81.8779 113.145 81.9613 113.347 82.1098 113.496C82.2582 113.645 82.4595 113.728 82.6695 113.728H85.6094C85.8194 113.728 86.0207 113.645 86.1691 113.496C86.3176 113.347 86.401 113.145 86.401 112.935C86.401 112.724 86.3176 112.523 86.1691 112.374C86.0207 112.225 85.8194 112.142 85.6094 112.142Z" fill="#3F3D56"/>
<path d="M91.0371 112.142H88.0971C87.8872 112.142 87.6859 112.225 87.5374 112.374C87.389 112.523 87.3056 112.724 87.3056 112.935C87.3056 113.145 87.389 113.347 87.5374 113.496C87.6859 113.645 87.8872 113.728 88.0971 113.728H91.0371C91.2471 113.728 91.4484 113.645 91.5968 113.496C91.7453 113.347 91.8287 113.145 91.8287 112.935C91.8287 112.724 91.7453 112.523 91.5968 112.374C91.4484 112.225 91.2471 112.142 91.0371 112.142H91.0371Z" fill="#3F3D56"/>
<path d="M85.6094 109.948H82.6695C82.4595 109.948 82.2582 110.031 82.1098 110.18C81.9613 110.329 81.8779 110.531 81.8779 110.741C81.8779 110.951 81.9613 111.153 82.1098 111.302C82.2582 111.451 82.4595 111.534 82.6695 111.534H85.6094C85.8194 111.534 86.0207 111.451 86.1691 111.302C86.3176 111.153 86.401 110.951 86.401 110.741C86.401 110.531 86.3176 110.329 86.1691 110.18C86.0207 110.031 85.8194 109.948 85.6094 109.948Z" fill="#3F3D56"/>
<path d="M91.0371 109.948H88.0971C87.8872 109.948 87.6859 110.031 87.5374 110.18C87.389 110.329 87.3056 110.531 87.3056 110.741C87.3056 110.951 87.389 111.153 87.5374 111.302C87.6859 111.451 87.8872 111.534 88.0971 111.534H91.0371C91.2471 111.534 91.4484 111.451 91.5968 111.302C91.7453 111.153 91.8287 110.951 91.8287 110.741C91.8287 110.531 91.7453 110.329 91.5968 110.18C91.4484 110.031 91.2471 109.948 91.0371 109.948H91.0371Z" fill="#3F3D56"/>
<path d="M131.138 97.7389H124.008V104.884H131.138V97.7389Z" fill="#E6E6E6"/>
<path d="M115.605 102.077H127.318V113.816H115.605V102.077ZM126.809 102.588H116.114V113.306H126.809V102.588Z" fill="#3F3D56"/>
<path d="M7.12982 38.7893H0V45.9347H7.12982V38.7893Z" fill="#E6E6E6"/>
<path d="M15.5329 41.5964H3.81958V29.8575H15.5329V41.5964ZM4.32885 41.086H15.0236V30.3679H4.32885V41.086Z" fill="#3F3D56"/>
</svg>
